<svg id="Слой_1" data-name="Слой 1" xmlns="http://www.w3.org/2000/svg" viewBox="0 0 105 51.62"><defs><style>.cls-1{fill:#fff;}</style></defs><title>лого</title><path class="cls-1" d="M51,6.93a3.62,3.62,0,1,0,7.23,0,3.62,3.62,0,1,0-7.23,0"/><path class="cls-1" d="M82.32,7A3.68,3.68,0,1,0,75,7a3.68,3.68,0,0,0,7.35,0"/><path class="cls-1" d="M75.09,21.74a3.62,3.62,0,1,0,7.23,0,3.62,3.62,0,1,0-7.23,0"/><path class="cls-1" d="M105,20a3.13,3.13,0,0,0-6.18,0Z"/><path class="cls-1" d="M51,36.55a3.62,3.62,0,1,0,3.62-3.68A3.57,3.57,0,0,0,51,36.55"/><path class="cls-1" d="M87.66,34.83a3.13,3.13,0,0,0-6.18,0Z"/><path class="cls-1" d="M10.67.42h3.68v13H10.67V11.78a4.68,4.68,0,0,1-4,2.11A6.62,6.62,0,0,1,0,6.93C0,3.07,2.62,0,6.48,0a4.73,4.73,0,0,1,4.19,2.11ZM3.8,6.93a3.57,3.57,0,0,0,3.62,3.71A3.57,3.57,0,0,0,11,6.93,3.55,3.55,0,0,0,7.41,3.25,3.55,3.55,0,0,0,3.8,6.93"/><path class="cls-1" d="M16,.42h3.68v2A4.4,4.4,0,0,1,21.35.57,4,4,0,0,1,23.52,0a4.51,4.51,0,0,1,1.57.3l-.48,3.44a2.77,2.77,0,0,0-1.72-.48,3,3,0,0,0-2.44,1.06,4.49,4.49,0,0,0-.72,2.89v6.27H16Z"/><path class="cls-1" d="M36.67,1.84A6.88,6.88,0,0,1,38.88,7a6.86,6.86,0,0,1-2.2,5.09,7.51,7.51,0,0,1-5.28,1.84,7.5,7.5,0,0,1-5.27-1.84A6.85,6.85,0,0,1,23.93,7a6.87,6.87,0,0,1,2.2-5.12A7.5,7.5,0,0,1,31.4,0a7.51,7.51,0,0,1,5.28,1.84M35.08,7a3.68,3.68,0,1,0-7.35,0,3.68,3.68,0,0,0,7.35,0"/><path class="cls-1" d="M2.35,15.23H6v1.48a4.8,4.8,0,0,1,3.89-1.9A4.32,4.32,0,0,1,14,17.19a4.8,4.8,0,0,1,4.19-2.38,4.14,4.14,0,0,1,3.53,1.6,5.48,5.48,0,0,1,.9,3.68v8.2H19V21.17a4,4,0,0,0-.6-2.56,1.85,1.85,0,0,0-1.51-.66,2.16,2.16,0,0,0-2,1.15,5,5,0,0,0-.51,2.53v6.66H10.67V21.17a4,4,0,0,0-.6-2.56,1.84,1.84,0,0,0-1.51-.66,2.16,2.16,0,0,0-2,1.15A5,5,0,0,0,6,21.62v6.66H2.35Z"/><path class="cls-1" d="M34.72,15.23H38.4V28.28H34.72V26.59a4.68,4.68,0,0,1-4,2.11,6.62,6.62,0,0,1-6.66-7c0-3.86,2.62-6.93,6.48-6.93a4.73,4.73,0,0,1,4.19,2.11Zm-6.87,6.51a3.62,3.62,0,1,0,7.23,0,3.62,3.62,0,1,0-7.23,0"/><path class="cls-1" d="M44,18.36l0,3.71c-.06,2.56.78,3.43,2.91,3.33l-.35,3.11c-4.81,0-6.21-1.77-6.21-5.65V11.12H44v4.11H47.6v3.13Z"/><path class="cls-1" d="M61.14,24.63a6.45,6.45,0,0,1-6.42,4.07,6.83,6.83,0,0,1-5-1.84,6.57,6.57,0,0,1-2-5.09,7,7,0,0,1,2-5.12,6.69,6.69,0,0,1,4.91-1.84,6.24,6.24,0,0,1,5.09,2.14,7.8,7.8,0,0,1,1.57,5.12v.3H51.46a3.86,3.86,0,0,0,.63,2.2,3.11,3.11,0,0,0,2.62,1.23,3.37,3.37,0,0,0,3-1.72ZM57.76,20a3.13,3.13,0,0,0-6.18,0Z"/><path class="cls-1" d="M10.67,30h3.68V51.62H10.67V41.4a4.68,4.68,0,0,1-4,2.11,6.62,6.62,0,0,1-6.66-7c0-3.86,2.62-6.93,6.48-6.93a4.73,4.73,0,0,1,4.19,2.11ZM3.8,36.55a3.57,3.57,0,0,0,3.62,3.71,3.69,3.69,0,0,0,0-7.38A3.55,3.55,0,0,0,3.8,36.55"/><path class="cls-1" d="M20,30v7.38a2.93,2.93,0,0,0,.78,2.29,3,3,0,0,0,3.74,0,2.94,2.94,0,0,0,.78-2.29V30h3.68v8a4.93,4.93,0,0,1-1.6,4,7.5,7.5,0,0,1-4.73,1.48A7.5,7.5,0,0,1,17.89,42a4.93,4.93,0,0,1-1.6-4V30Z"/><path class="cls-1" d="M43.8,39.44a6.45,6.45,0,0,1-6.42,4.07,6.83,6.83,0,0,1-5-1.84,6.57,6.57,0,0,1-2-5.09,7,7,0,0,1,2-5.12,6.68,6.68,0,0,1,4.91-1.84,6.24,6.24,0,0,1,5.09,2.14,7.79,7.79,0,0,1,1.57,5.12v.3H34.12a3.86,3.86,0,0,0,.63,2.2,3.11,3.11,0,0,0,2.62,1.24,3.36,3.36,0,0,0,3-1.72Zm-3.38-4.61a3.13,3.13,0,0,0-6.18,0Z"/></svg>